<svg t="1692335604520" class="icon" viewBox="0 0 1024 1024" version="1.1" xmlns="http://www.w3.org/2000/svg" p-id="4918" width="48" height="48"><path d="M959.288674 828.030723c0 0-76.276221-61.033052-213.678614-61.033052-137.363508 0-213.677591 61.033052-213.677591 61.033052L531.93247 273.696546c0 0 64.400752-77.727269 215.798904-77.727269 151.362336 0 211.556277 77.727269 211.556277 77.727269L959.287651 828.030723z" fill="#565fd3" p-id="4919"></path><path d="M492.102323 828.030723c0 0-76.350922-61.033052-213.677591-61.033052-137.364531 0-213.71443 61.033052-213.71443 61.033052L64.710302 273.696546c0 0 64.438615-77.727269 215.836767-77.727269 151.361313 0 211.555254 77.727269 211.555254 77.727269L492.102323 828.030723z" fill="#565fd3" p-id="4920"></path></svg>